# xmcd
#
# Track frame offsets:
#	150
#	15106
#	28033
#	39340
#	54048
#	67277
#	81298
#	96671
#	109425
#	122453
#	133508
#	152186
#	162954
#	180069
#
# Disc length: 2657 seconds
#
# Revision: 1
# Processed by: cddbd v1.5.2PL0 Copyright (c) Steve Scherf et al.
# Submitted via: audiograbber 1.83.01
#
DISCID=ab0a5f0e
DTITLE=Veronica and the Red Wine Serenaders - Veronica and the Red Wine Serenad
DTITLE=ers
DYEAR=1900
DGENRE=
TTITLE0=Bootleggers Blues
TTITLE1=You Drink Too Much
TTITLE2=Nobody Knows But Me
TTITLE3=Busy Bootin
TTITLE4=lullaby Of The Leaves
TTITLE5=Me Myself and I
TTITLE6=Doggone My Soul
TTITLE7=Lovesick Blues
TTITLE8=Mr Ambulance Man
TTITLE9=You May Leave (But This Will Bring You Back)
TTITLE10=I Wanna Go Back To My Little Grass Shack
TTITLE11=I Wish I Could Shimmy Like My Sister Kate
TTITLE12=You Must Come In At The Door
TTITLE13=Good Old Wagon
EXTD=
EXTT0=
EXTT1=
EXTT2=
EXTT3=
EXTT4=
EXTT5=
EXTT6=
EXTT7=
EXTT8=
EXTT9=
EXTT10=
EXTT11=
EXTT12=
EXTT13=
PLAYORDER=
